<svg xmlns="http://www.w3.org/2000/svg" xmlns:xlink="http://www.w3.org/1999/xlink" width="500" zoomAndPan="magnify" viewBox="0 0 375 374.999991" height="500" preserveAspectRatio="xMidYMid meet" version="1.0"><defs><g/><clipPath id="2b38cffe54"><path d="M 112.5 228.328125 L 262.5 228.328125 L 262.5 265.828125 L 112.5 265.828125 Z M 112.5 228.328125 " clip-rule="nonzero"/></clipPath></defs><g clip-path="url(#2b38cffe54)"><path fill="#a6a6a6" d="M 131.25 228.328125 C 120.890625 228.328125 112.5 236.71875 112.5 247.078125 C 112.5 257.4375 120.890625 265.828125 131.25 265.828125 C 141.609375 265.828125 150 257.4375 150 247.078125 C 150 236.71875 141.609375 228.328125 131.25 228.328125 Z M 243.75 228.328125 C 233.390625 228.328125 225 236.71875 225 247.078125 C 225 257.4375 233.390625 265.828125 243.75 265.828125 C 254.109375 265.828125 262.5 257.4375 262.5 247.078125 C 262.5 236.71875 254.109375 228.328125 243.75 228.328125 Z M 187.5 228.328125 C 177.140625 228.328125 168.75 236.71875 168.75 247.078125 C 168.75 257.4375 177.140625 265.828125 187.5 265.828125 C 197.859375 265.828125 206.25 257.4375 206.25 247.078125 C 206.25 236.71875 197.859375 228.328125 187.5 228.328125 Z M 187.5 228.328125 " fill-opacity="1" fill-rule="nonzero"/></g><g fill="#000000" fill-opacity="1"><g transform="translate(136.488276, 202.499987)"><g><path d="M 14.75 -28.5625 C 16.789062 -28.5625 18.535156 -28.1875 19.984375 -27.4375 C 21.441406 -26.6875 22.539062 -25.632812 23.28125 -24.28125 C 24.019531 -22.9375 24.390625 -21.375 24.390625 -19.59375 C 24.390625 -17.8125 24.019531 -16.25 23.28125 -14.90625 C 22.539062 -13.5625 21.441406 -12.515625 19.984375 -11.765625 C 18.535156 -11.015625 16.789062 -10.640625 14.75 -10.640625 L 9.359375 -10.640625 L 9.359375 0 L 3.71875 0 L 3.71875 -28.5625 Z M 14 -15.125 C 17.144531 -15.125 18.71875 -16.613281 18.71875 -19.59375 C 18.71875 -22.582031 17.144531 -24.078125 14 -24.078125 L 9.359375 -24.078125 L 9.359375 -15.125 Z M 14 -15.125 "/></g></g></g><g fill="#000000" fill-opacity="1"><g transform="translate(162.579476, 202.499987)"><g><path d="M 9.359375 0 L 3.71875 0 L 3.71875 -28.5625 L 9.359375 -28.5625 Z M 9.359375 0 "/></g></g></g><g fill="#000000" fill-opacity="1"><g transform="translate(175.664135, 202.499987)"><g><path d="M 6.265625 0 L 0.484375 0 L 8.953125 -14.6875 L 0.90625 -28.5625 L 6.890625 -28.5625 L 12.8125 -18.328125 L 13.296875 -18.328125 L 19.3125 -28.5625 L 25.015625 -28.5625 L 16.96875 -14.6875 L 25.4375 0 L 19.453125 0 L 13.109375 -11.015625 L 12.625 -11.015625 Z M 6.265625 0 "/></g></g></g><g fill="#000000" fill-opacity="1"><g transform="translate(201.579577, 202.499987)"><g><path d="M 9.359375 -12.546875 L 9.359375 -4.734375 L 22.984375 -4.734375 L 22.984375 0 L 3.71875 0 L 3.71875 -28.5625 L 22.671875 -28.5625 L 22.671875 -23.828125 L 9.359375 -23.828125 L 9.359375 -17.15625 L 21 -17.15625 L 21 -12.546875 Z M 9.359375 -12.546875 "/></g></g></g><g fill="#000000" fill-opacity="1"><g transform="translate(226.127965, 202.499987)"><g><path d="M 8.953125 0.40625 C 7.003906 0.40625 5.519531 -0.113281 4.5 -1.15625 C 3.476562 -2.207031 2.96875 -3.800781 2.96875 -5.9375 L 2.96875 -30.203125 L 8.375 -30.203125 L 8.375 -6.15625 C 8.375 -4.84375 8.921875 -4.1875 10.015625 -4.1875 C 10.328125 -4.1875 10.660156 -4.238281 11.015625 -4.34375 L 11.296875 -4.265625 L 11.78125 -0.09375 C 11.476562 0.0625 11.078125 0.179688 10.578125 0.265625 C 10.085938 0.359375 9.546875 0.40625 8.953125 0.40625 Z M 8.953125 0.40625 "/></g></g></g></svg>