<svg xmlns="http://www.w3.org/2000/svg" version="1.1" xmlns:xlink="http://www.w3.org/1999/xlink" xmlns:svgjs="http://svgjs.dev/svgjs" width="1440" height="560" preserveAspectRatio="none" viewBox="0 0 1440 560"><g mask="url(&quot;#SvgjsMask1000&quot;)" fill="none"><rect width="1440" height="560" x="0" y="0" fill="#0e2a47"></rect><path d="M107.97 531.32 a34.63 34.63 0 1 0 69.26 0 a34.63 34.63 0 1 0 -69.26 0z" stroke="#e73635"></path><path d="M873.88 443.9L896.12 443.9L896.12 456.6L873.88 456.6z" fill="#037b0b"></path><path d="M1148.81 183.53 a25.96 25.96 0 1 0 51.92 0 a25.96 25.96 0 1 0 -51.92 0z" fill="#037b0b"></path><path d="M1063.61 66.51 a28.6 28.6 0 1 0 57.2 0 a28.6 28.6 0 1 0 -57.2 0z" fill="#e73635"></path><path d="M301.76 156.2 a52.65 52.65 0 1 0 105.3 0 a52.65 52.65 0 1 0 -105.3 0z" fill="#d3b714"></path><path d="M849.18 329.87 a17.38 17.38 0 1 0 34.76 0 a17.38 17.38 0 1 0 -34.76 0z" stroke="#d3b714"></path><path d="M714.87 356.19 a25.99 25.99 0 1 0 51.98 0 a25.99 25.99 0 1 0 -51.98 0z" fill="#037b0b"></path><path d="M247.64 381.68 a28.85 28.85 0 1 0 57.7 0 a28.85 28.85 0 1 0 -57.7 0z" stroke="#d3b714"></path><path d="M231.36 462.7 a32.31 32.31 0 1 0 64.62 0 a32.31 32.31 0 1 0 -64.62 0z" fill="#037b0b"></path><path d="M1225.4 460.37L1256.75 460.37L1256.75 491.72L1225.4 491.72z" stroke="#d3b714"></path><path d="M400.73 435.95L446.84 435.95L446.84 438.52L400.73 438.52z" fill="#037b0b"></path><path d="M125.56 78.61a26.22 26.22 0 1 0 51.5-9.88z" stroke="#037b0b"></path><path d="M722.99 58.62a17.67 17.67 0 1 0 32.16-14.66z" fill="#e73635"></path><path d="M1043.41 452.34a47.12 47.12 0 1 0 0.57 94.24z" stroke="#037b0b"></path><path d="M1435.98 466.76L1483.14 466.76L1483.14 521.81L1435.98 521.81z" stroke="#037b0b"></path><path d="M363.02 91.63L382.67 91.63L382.67 111.28L363.02 111.28z" fill="#d3b714"></path><path d="M614.66 352.65 a4.34 4.34 0 1 0 8.68 0 a4.34 4.34 0 1 0 -8.68 0z" stroke="#037b0b"></path><path d="M831.71 228.34 a42.05 42.05 0 1 0 84.1 0 a42.05 42.05 0 1 0 -84.1 0z" fill="#e73635"></path><path d="M500.63 196.31L540.67 196.31L540.67 244.78L500.63 244.78z" fill="#e73635"></path><path d="M636.11 104.33L647.62 104.33L647.62 115.84L636.11 115.84z" stroke="#e73635"></path><path d="M1144.02 383.84 a26.35 26.35 0 1 0 52.7 0 a26.35 26.35 0 1 0 -52.7 0z" stroke="#e73635"></path><path d="M163.03 5.4 a19.25 19.25 0 1 0 38.5 0 a19.25 19.25 0 1 0 -38.5 0z" fill="#037b0b"></path><path d="M431.82 75.35L474.25 75.35L474.25 79.83L431.82 79.83z" stroke="#037b0b"></path><path d="M715.42 536.51L739.49 536.51L739.49 555.97L715.42 555.97z" fill="#e73635"></path><path d="M1000.34 391.8a33.05 33.05 0 1 0-21.2-62.61z" fill="#e73635"></path><path d="M844.9 182.42 a30.43 30.43 0 1 0 60.86 0 a30.43 30.43 0 1 0 -60.86 0z" fill="#037b0b"></path><path d="M653.1 144.78a49.73 49.73 0 1 0 70.29-70.36z" stroke="#d3b714"></path><path d="M1395.39 322.04a19.63 19.63 0 1 0-39.25-1.06z" fill="#e73635"></path><path d="M1306.2 477.06L1346.18 477.06L1346.18 487.31L1306.2 487.31z" stroke="#037b0b"></path><path d="M943.45 292.76 a45.12 45.12 0 1 0 90.24 0 a45.12 45.12 0 1 0 -90.24 0z" fill="#037b0b"></path><path d="M205.91 251.41a19.02 19.02 0 1 0-5.4 37.65z" stroke="#e73635"></path><path d="M525.52 497.21 a2.23 2.23 0 1 0 4.46 0 a2.23 2.23 0 1 0 -4.46 0z" fill="#e73635"></path><path d="M23.97 503.28 a35.57 35.57 0 1 0 71.14 0 a35.57 35.57 0 1 0 -71.14 0z" stroke="#e73635"></path></g><defs><mask id="SvgjsMask1000"><rect width="1440" height="560" fill="#ffffff"></rect></mask></defs></svg>